
<svg version="1.0" xmlns="http://www.w3.org/2000/svg"
 width="46" height="51"  viewBox="0 0 464.000000 511.000000"
 preserveAspectRatio="xMidYMid meet">

<g transform="translate(0.000000,511.000000) scale(0.100000,-0.100000)"
fill="#fff" stroke="none">
<path d="M1200 4446 c0 -4 6 -34 14 -65 49 -189 58 -443 26 -681 -60 -436 -63
-486 -64 -895 -1 -328 2 -410 17 -515 43 -293 99 -495 193 -689 76 -160 153
-270 266 -382 l97 -97 -37 -15 c-20 -7 -59 -20 -85 -27 -55 -15 -65 -29 -48
-67 10 -21 16 -24 39 -19 15 4 45 9 66 13 l39 6 -42 -59 c-23 -32 -56 -79 -74
-102 l-32 -44 30 -24 c17 -13 37 -24 45 -24 8 0 52 37 98 82 l84 83 -7 -64
c-8 -68 -1 -81 40 -81 37 0 44 15 56 112 7 53 15 101 18 107 5 7 34 0 81 -18
98 -38 257 -71 342 -71 72 0 204 27 305 62 35 12 65 19 68 17 2 -3 -2 -41 -10
-84 -9 -44 -13 -85 -11 -92 7 -17 75 -17 80 0 2 6 9 31 15 55 7 23 16 40 21
37 4 -3 29 -48 54 -100 39 -81 49 -95 70 -95 13 0 34 8 46 18 l23 18 -32 97
c-43 127 -40 137 24 96 l49 -31 23 28 c13 16 23 32 23 36 0 7 -35 34 -129 99
l-44 31 95 89 c257 239 414 587 484 1069 12 82 18 213 21 455 4 293 2 372 -17
570 -11 127 -27 266 -35 310 -27 149 -39 392 -26 538 10 115 34 243 56 300 12
30 -9 19 -55 -29 -85 -87 -269 -215 -401 -280 l-57 -27 -70 22 c-56 19 -88 22
-154 19 -105 -4 -175 -37 -262 -121 l-61 -60 -91 -5 -91 -4 -74 68 c-99 91
-158 117 -275 122 -77 4 -99 1 -139 -17 -26 -11 -54 -21 -61 -21 -20 0 -163
73 -242 124 -80 51 -168 121 -234 184 -27 26 -48 43 -48 38z m885 -426 c108
-52 200 -167 241 -303 l18 -57 23 70 c57 176 185 295 343 321 116 19 218 -20
311 -118 100 -105 150 -237 151 -398 1 -180 -49 -311 -160 -421 -59 -58 -62
-63 -27 -43 21 13 63 47 92 77 29 29 58 50 63 47 16 -10 116 -166 149 -233
163 -325 180 -745 47 -1091 -213 -552 -761 -843 -1276 -679 -236 75 -455 257
-591 491 -225 384 -243 887 -47 1282 33 66 133 221 149 231 6 3 24 -7 41 -22
l30 -29 -35 56 c-119 187 -122 470 -7 649 119 185 312 253 485 170z"/>
<path d="M1980 3550 c-146 -27 -222 -183 -154 -318 82 -166 317 -158 395 13
73 158 -69 337 -241 305z"/>
<path d="M2761 3548 c-60 -10 -115 -49 -145 -100 -55 -95 -43 -192 33 -268 86
-86 204 -93 296 -18 64 53 92 136 74 216 -26 119 -137 192 -258 170z"/>
<path d="M2304 3186 c-49 -22 -74 -61 -74 -117 0 -42 8 -60 55 -134 30 -47 57
-85 60 -85 3 0 30 37 60 83 51 78 54 87 52 140 -2 49 -7 61 -32 86 -36 35 -80
45 -121 27z"/>
</g>
</svg>
